<svg aria-hidden="true" style="position: absolute; width: 0; height: 0; overflow: hidden;" version="1.1" xmlns="http://www.w3.org/2000/svg" xmlns:xlink="http://www.w3.org/1999/xlink">
<defs>
<symbol id="icon-icon_1" viewBox="0 0 224 32">
<path fill="#2e2e2f" style="fill: var(--color1, #2e2e2f)" d="M54.192 13.389l-0.373 1.902h-0.112c-0.485-1.044-1.828-2.536-4.811-2.536-4.811 0-9.734 3.73-10.816 9.585-0.932 5.147 1.529 9.66 7.235 9.66 2.089 0 4.476-0.82 5.744-2.573h0.112l-0.336 1.939h5.333l3.319-17.977h-5.296zM52.439 22.34c-0.336 1.753-2.014 4.625-5.371 4.625-3.282 0-3.953-2.872-3.655-4.55 0.373-2.051 2.2-4.625 5.333-4.625 3.058 0.037 4.103 2.462 3.692 4.55z"></path>
<path fill="#2e2e2f" style="fill: var(--color1, #2e2e2f)" d="M62.509 13.389h4.998l-0.336 1.902h0.112c0.634-0.858 1.902-2.536 4.96-2.536l-1.007 5.445c-2.536 0.037-4.364 0.559-4.848 3.319l-1.828 9.846h-5.371l3.319-17.977z"></path>
<path fill="#2e2e2f" style="fill: var(--color1, #2e2e2f)" d="M75.823 6.378h5.408l-2.536 13.538h0.075l6.228-6.527h6.34l-8.205 7.907 4.699 10.070h-6.079l-3.469-8.653h-0.112l-1.566 8.653h-5.408l4.625-24.988z"></path>
<path fill="#2e2e2f" style="fill: var(--color1, #2e2e2f)" d="M99.953 12.755c-5.445 0-10.294 4.699-11.189 9.697-1.007 5.333 2.611 9.511 7.758 9.511 1.828 0 3.73-0.559 5.371-1.641 1.716-1.044 3.282-2.573 4.476-4.587h-5.482c-0.895 0.932-1.939 1.678-3.58 1.678-2.089 0-3.655-1.268-3.543-3.394h13.463c0.149-0.41 0.261-0.746 0.373-1.417 1.044-5.482-2.163-9.846-7.646-9.846zM94.508 20.401c0.41-1.044 1.902-3.096 4.699-3.096s3.469 2.014 3.469 3.096h-8.168z"></path>
<path fill="#2e2e2f" style="fill: var(--color1, #2e2e2f)" d="M30.956 6.378l-9.473 14.247h-0.075v-14.247h-4.587l-16.82 24.988h6.527l9.436-14.247h0.075v14.247h4.625l9.436-14.247h0.075v14.247h5.408v-24.988h-4.625z"></path>
<path fill="#2e2e2f" style="fill: var(--color1, #2e2e2f)" d="M121.25 13.389h-3.394l1.007-5.333h-4.699l-0.373 2.051c-0.411 2.35-1.902 3.058-3.841 3.282h-0.037l-0.821 4.065h2.649l-2.574 13.874h5.371l2.574-13.874h3.431l0.708-4.065z"></path>
<path fill="#00ac4e" style="fill: var(--color2, #808080)" d="M204.382 24.578c-1.754 4.065-5.968 7.422-10.816 7.422-5.445 0-8.839-4.289-7.87-9.66 1.007-5.259 5.856-9.548 11.264-9.548 4.736 0 8.018 3.17 8.13 7.571h-5.445c-0.336-1.268-1.156-2.536-3.431-2.536-2.535-0.112-4.624 1.939-5.109 4.55-0.485 2.648 0.858 4.587 3.431 4.587 2.201 0 3.542-1.268 4.326-2.424l5.52 0.037zM159.887 0l-10.443 6.378h2.946l-9.473 14.247h-0.112v-14.247h-4.624l-9.437 14.247h-0.111v-14.247h-5.371v24.988h4.699l9.473-14.247h0.112v14.247h4.625l16.746-24.988h2.649l-1.679-6.378zM170.069 31.366h-5.333l0.335-1.939h-0.111c-1.268 1.753-3.655 2.573-5.744 2.573-5.707 0-8.167-4.476-7.235-9.66 1.044-5.856 6.004-9.585 10.816-9.585 2.946 0 4.325 1.455 4.811 2.536h0.112l0.373-1.902h5.333l-3.357 17.977zM161.043 27.002c3.319 0 4.997-2.872 5.371-4.625 0.373-2.163-0.634-4.55-3.692-4.55-3.095 0-4.924 2.573-5.333 4.625-0.299 1.678 0.372 4.55 3.654 4.55zM186.852 13.389h-3.357l1.007-5.333h-4.699l-0.373 2.051c-0.411 2.35-1.902 3.058-3.841 3.282h-0.075l-0.784 4.065h2.649l-2.574 13.874h5.371l2.574-13.874h3.431l0.671-4.065zM209.454 6.378h5.371l-1.642 8.914h0.112c1.156-1.678 2.686-2.536 5.072-2.536 1.716 0 3.655 0.634 4.55 2.014 1.156 1.753 1.044 3.319 0.411 6.527l-1.827 10.033h-5.371l1.79-9.772c0.149-0.858 0.671-3.767-2.163-3.767-3.021 0-3.543 2.685-3.693 3.58l-1.827 9.958h-5.371l4.588-24.951z"></path>
</symbol>
<symbol id="icon-icon_2" viewBox="0 0 120 32">
<path d="M1.088 0.704c-0.96 0.576-1.088 1.6-0.96 8.448l0.128 7.808 0.32-7.168c0.192-3.968 0.704-7.488 1.088-7.872 0.448-0.448 5.312-0.576 14.4-0.512l13.696 0.192v28.8l-7.168 0.192c-9.408 0.256-9.6 1.408-0.256 1.408 5.504 0 7.232-0.192 8-1.024 1.536-1.472 1.536-28.48 0-29.952-0.832-0.896-3.072-1.024-14.528-1.024-8 0-14.016 0.32-14.72 0.704z"></path>
<path d="M9.088 10.624c-1.536 1.088-1.92 4.288-0.64 5.184 0.448 0.256 2.112 0.96 3.712 1.472 2.112 0.704 2.944 1.344 3.072 2.368 0.256 1.728-1.6 2.368-5.504 1.856-2.752-0.384-2.944-0.32-1.792 0.576 1.856 1.408 6.464 1.28 8.064-0.32 2.368-2.368 1.152-4.736-3.2-6.016-3.52-1.024-4.672-2.624-2.88-3.968 0.896-0.704 2.048-0.832 4.032-0.576 1.536 0.256 2.688 0.128 2.688-0.192 0-1.6-5.376-1.92-7.552-0.384z"></path>
<path d="M21.12 16.32c0 4.032 0.256 6.72 0.64 6.72s0.64-2.688 0.64-6.72c0-4.032-0.256-6.72-0.64-6.72s-0.64 2.688-0.64 6.72z"></path>
<path d="M95.040 11.52c-0.192 0.32-0.064 0.64 0.256 0.64 0.384 0 0.704-0.32 0.704-0.64 0-0.384-0.128-0.64-0.256-0.64-0.192 0-0.512 0.256-0.704 0.64z"></path>
<path d="M104.32 12.736c0 1.792-0.128 1.856-2.112 1.536-2.432-0.384-3.776 0.832-3.776 3.328s1.28 3.584 4.032 3.392l2.496-0.128v-4.992c0-2.752-0.128-4.992-0.32-4.992s-0.32 0.832-0.32 1.856zM103.104 15.36c2.048 1.152 1.216 5.12-1.088 5.12-1.088 0-2.816-1.792-2.816-2.88 0-0.832 1.664-2.88 2.304-2.88 0.192 0 0.896 0.32 1.6 0.64z"></path>
<path d="M38.4 12.736c-0.96 1.856-0.192 3.136 2.432 3.968 3.136 0.96 3.712 1.6 2.688 2.88-0.704 0.768-1.536 0.896-3.392 0.64-1.6-0.256-2.304-0.192-2.048 0.256 0.64 1.024 5.824 0.768 6.72-0.32 1.216-1.472 0.128-3.392-2.432-4.224-3.136-0.96-3.712-1.6-2.688-2.88 0.64-0.704 1.536-0.896 3.008-0.704 1.152 0.192 2.112 0.128 2.112-0.256 0-0.32-1.28-0.576-2.88-0.576-2.176 0-3.008 0.32-3.52 1.216z"></path>
<path d="M63.488 12.288c-1.792 1.792-0.704 3.712 2.752 4.8 1.28 0.384 1.92 1.024 1.92 1.856 0 1.024-0.448 1.216-2.816 1.088-1.92-0.064-2.624 0.064-2.176 0.512 0.384 0.384 1.728 0.576 3.072 0.448 4.48-0.384 4.736-4.032 0.384-5.12-3.776-1.024-3.136-4.032 0.768-3.52 0.96 0.128 1.728 0 1.728-0.32 0-0.832-4.8-0.576-5.632 0.256z"></path>
<path d="M75.52 16.32c0 2.752 0.256 4.8 0.64 4.8s0.64-2.048 0.64-4.8c0-2.752-0.256-4.8-0.64-4.8s-0.64 2.048-0.64 4.8z"></path>
<path d="M47.36 14.784c0 0.384 0.576 0.512 1.28 0.256 1.344-0.448 3.2 0.576 3.2 1.664 0 0.32-0.832 0.576-1.856 0.576-2.048 0-3.584 1.408-3.008 2.88 0.256 0.704 1.152 0.96 3.264 0.832 2.816-0.064 2.88-0.128 2.88-2.24 0-3.392-0.96-4.672-3.52-4.672-1.216 0-2.24 0.32-2.24 0.704zM51.712 18.688c-0.448 1.344-2.304 2.176-3.136 1.344-0.384-0.384-0.512-1.024-0.32-1.408 0.64-0.96 3.776-0.896 3.456 0.064z"></path>
<path d="M55.296 14.848c-0.32 0.512 0 0.576 0.96 0.32 1.856-0.448 3.264 0.064 3.264 1.152 0 0.512-0.896 0.96-2.048 1.088-1.792 0.128-2.112 0.448-2.112 1.792 0 1.472 0.256 1.6 2.752 1.664l2.688 0.128v-2.688c0-1.472-0.32-3.008-0.768-3.456-0.96-0.96-4.16-1.024-4.736 0zM59.392 19.008c-0.256 1.28-2.24 1.92-3.2 0.96s0-2.048 1.792-2.048c1.216 0 1.6 0.32 1.408 1.088z"></path>
<path d="M79.36 17.728c0 1.856 0.32 3.392 0.64 3.392 0.384 0 0.64-1.152 0.64-2.56 0-1.856 0.32-2.688 1.28-3.2 1.92-1.024 2.56-0.256 2.56 2.944 0 1.536 0.32 2.816 0.64 2.816 0.768 0 0.832-5.056 0.128-6.208-0.256-0.448-1.664-0.704-3.2-0.64l-2.688 0.064v3.392z"></path>
<path d="M88.32 15.040c-1.152 1.408-0.384 2.688 1.92 3.2 2.56 0.576 2.112 1.92-0.576 1.856-1.088-0.064-1.792 0.128-1.6 0.448 0.512 0.896 3.84 0.704 4.672-0.256 0.896-1.088-0.32-2.816-2.176-3.136-2.048-0.32-1.6-2.112 0.512-1.984 0.96 0.064 1.728-0.128 1.728-0.512 0-0.96-3.584-0.64-4.48 0.384z"></path>
<path d="M95.552 17.6c0 2.112 0.128 2.88 0.256 1.728s0.128-2.88 0-3.84c-0.128-0.96-0.256 0-0.256 2.112z"></path>
<path d="M108.288 14.848c-0.448 0.448-0.768 1.664-0.768 2.752s0.32 2.304 0.768 2.752c0.96 0.96 4.992 1.024 4.992 0.064 0-0.32-0.32-0.448-0.704-0.256-1.024 0.704-3.776-0.256-3.776-1.28 0-0.704 0.704-0.96 2.56-0.96 2.624 0 3.008-0.512 1.92-2.624-0.768-1.408-3.776-1.664-4.992-0.448zM111.616 15.104c1.792 0.704 1.152 2.176-0.896 2.176-1.152 0-1.92-0.32-1.92-0.832 0-1.6 0.96-2.048 2.816-1.344z"></path>
<path d="M115.84 17.728c0 1.856 0.32 3.392 0.64 3.392 0.384 0 0.64-1.088 0.64-2.496 0-1.856 0.384-2.688 1.472-3.456 1.408-0.96 1.408-0.96-0.64-0.96l-2.112 0.064v3.456z"></path>
</symbol>
<symbol id="icon-icon_3" viewBox="0 0 64 32">
<path d="M43.8 11.68c-2.6 1.4-4.24 4.32-3.4 5.92 0.64 1.2 1.6 1 1.6-0.32 0-1.36 1.24-3.44 2.56-4.28 1.28-0.84 3.76-0.96 4.28-0.2 0.64 1.040 0.4 1.92-0.88 3.4-1.64 1.84-2.040 1.76-1.36-0.24 0.72-2.040 0.76-2.36 0.080-2.36s-2.68 4.4-2.68 5.92c0 1 0.16 1.28 0.8 1.28 0.56 0 0.8-0.28 0.8-0.96s0.44-1.24 1.4-1.84c0.76-0.44 1.72-1.32 2.16-1.92 0.72-0.96 0.8-1 0.8-0.28 0 0.44-0.24 1.24-0.56 1.8-0.76 1.32-0.76 2.8 0 2.8 0.32 0 0.6-0.2 0.6-0.4 0-0.24 0.28-1.080 0.6-1.88 0.6-1.36 0.64-1.4 1.16-0.68 0.68 0.92 0.84 0.76 1.2-1.16 0.32-1.64-0.080-1.88-1.16-0.68-0.72 0.8-0.72 0.8-1.28 0-0.32-0.44-0.44-1.16-0.28-1.8 0.44-1.72-0.72-2.6-3.4-2.6-1.24 0-2.6 0.24-3.040 0.48z"></path>
<path d="M11.6 12c-0.72 0.44-0.16 1.68 0.68 1.52 0.4-0.080 0.76-0.4 0.84-0.76 0.16-0.76-0.76-1.24-1.52-0.76z"></path>
<path d="M6.88 13.2c-0.36 0.64-0.8 1.2-0.96 1.2-0.2 0-0.32 0.36-0.32 0.8s0.2 0.8 0.4 0.8c0.24 0 0.4 0.72 0.4 1.6s-0.16 1.6-0.4 1.6c-0.2 0-0.4 0.28-0.4 0.6 0 0.44 0.48 0.6 2 0.6s2-0.16 2-0.6c0-0.32-0.28-0.6-0.6-0.6-0.44 0-0.6-0.44-0.6-1.6 0-1.56 0.040-1.6 1.4-1.6s1.4 0.040 1.4 1.6c0 0.88-0.16 1.6-0.4 1.6-0.2 0-0.4 0.28-0.4 0.6 0 0.44 0.48 0.6 1.8 0.6s1.8-0.16 1.8-0.6c0-0.32-0.16-0.6-0.4-0.6s-0.4-1.080-0.4-2.4v-2.36l-2.48-0.16c-1.88-0.080-2.28-0.2-1.6-0.44 0.48-0.2 0.88-0.68 0.88-1.080 0-0.56-0.28-0.76-1.2-0.76-0.96 0-1.4 0.28-1.92 1.2z"></path>
<path d="M14 15.2c0 0.44 0.16 0.8 0.36 0.8 0.24 0 0.72 1 1.080 2.2 0.72 2.2 0.76 2.24 2.12 2.12 1.28-0.12 1.44-0.28 2.040-2.080 0.36-1.12 0.88-2.080 1.12-2.16 0.28-0.080 0.48-0.48 0.48-0.92 0-0.64-0.28-0.76-1.64-0.76-1.56 0-1.64 0.040-1.44 1.080 0.12 0.6 0 1.52-0.2 2.080-0.4 1-0.44 1-0.72 0.24-0.2-0.44-0.24-1.4-0.12-2.12 0.2-1.28 0.2-1.28-1.44-1.28-1.36 0-1.64 0.12-1.64 0.8z"></path>
<path d="M22.040 15.44c-2.080 2.64 0.4 6.040 3.68 5.080 1.64-0.44 1.72-1.52 0.080-1.56-1.88-0.040-2.2-0.12-2.2-0.56 0-0.24 0.8-0.4 1.8-0.4 1.72 0 1.8-0.040 1.8-1.12 0-2.48-3.56-3.48-5.16-1.44zM25.12 16.32c0.080 0.28-0.24 0.48-0.68 0.48-0.84 0-1.080-0.44-0.56-0.96 0.36-0.36 1.040-0.080 1.24 0.48z"></path>
<path d="M28 15.2c0 0.44 0.2 0.8 0.4 0.8 0.24 0 0.4 0.72 0.4 1.6s-0.16 1.6-0.4 1.6c-0.2 0-0.4 0.28-0.4 0.6 0 0.44 0.48 0.6 1.8 0.6s1.8-0.16 1.8-0.6c0-0.32-0.2-0.6-0.44-0.6-0.8 0-0.2-2.2 0.76-2.6 0.52-0.24 0.88-0.72 0.88-1.28 0-1.080-1-1.24-1.52-0.28-0.32 0.6-0.4 0.6-0.6 0-0.16-0.4-0.72-0.64-1.48-0.64-0.92 0-1.2 0.16-1.2 0.8z"></path>
<path d="M33.6 15.2c0 0.44 0.2 0.8 0.4 0.8 0.24 0 0.4 0.72 0.4 1.6s-0.16 1.6-0.4 1.6c-0.2 0-0.4 0.28-0.4 0.6 0 0.44 0.48 0.6 1.8 0.6s1.8-0.16 1.8-0.6c0-0.32-0.2-0.6-0.44-0.6-0.8 0-0.2-2.2 0.76-2.6 0.52-0.24 0.88-0.72 0.88-1.28 0-1.080-1-1.24-1.52-0.28-0.32 0.6-0.4 0.6-0.6 0-0.16-0.4-0.72-0.64-1.48-0.64-0.92 0-1.2 0.16-1.2 0.8z"></path>
<path d="M55.4 15.36c-1.92 0.84-2.92 3.96-1.6 5.040 1.4 1.16 4.36-2.48 3.68-4.52-0.4-1.24-0.44-1.24-2.080-0.52zM56.080 18.6c-0.24 0.56-0.72 1-1.080 1-0.8 0-0.76-1.56 0.080-2.8l0.68-0.96 0.36 0.88c0.28 0.6 0.24 1.2-0.040 1.88z"></path>
</symbol>
</defs>
</svg>
